<svg width="448" height="87" viewBox="0 0 448 87" fill="none" xmlns="http://www.w3.org/2000/svg">
<path d="M25.0076 86.3712C19.916 86.1174 15.2645 86.9203 10.9898 85.9296C26.0558 71.2204 41.0957 56.5367 56.2963 41.6961C56.8479 42.1512 56.1968 44.1179 56.2202 45.8359C56.3134 52.6631 56.4111 59.4954 56.2376 66.3191C56.1289 70.5953 58.7469 70.8603 61.7956 70.5814C64.6171 70.3233 68.7764 72.1001 68.7946 66.8064C68.8474 51.4847 68.7808 36.1627 68.8033 20.8409C68.8074 18.0485 67.3947 16.9957 64.7778 16.9963C49.6228 16.9996 34.4679 16.9832 19.3129 16.9597C14.4945 16.9522 15.4987 20.5352 15.3287 23.3798C15.1362 26.6017 15.3416 29.5533 19.7257 29.5541C26.5537 29.5555 33.382 29.5534 40.2093 29.6329C41.8165 29.6516 43.523 29.1215 44.381 29.695C30.0307 43.9818 15.5988 58.3498 1.09082 72.7935C0.363193 72.1252 0.885989 70.3527 0.882144 68.7803C0.837711 50.627 0.81438 32.4735 0.868777 14.3202C0.89751 4.73222 5.00588 0.667385 14.5841 0.65501C34.403 0.629406 54.222 0.63583 74.0409 0.676311C82.618 0.693828 87.0935 4.92338 87.1483 13.5103C87.2749 33.3283 87.2798 53.1482 87.1479 72.9661C87.0873 82.0685 82.5962 86.3147 73.4702 86.3436C57.4823 86.3941 41.4941 86.366 25.0076 86.3712Z" fill="white"/>
<path d="M302.006 75.3892C296.359 75.2222 291.193 75.6991 286.081 74.503C277.884 72.5852 273.201 67.6323 272.945 59.1621C272.607 48.009 272.571 36.8313 272.892 25.6782C273.195 15.1514 279.19 9.01073 290.039 8.80105C310.359 8.40831 330.69 8.68787 351.017 8.60946C354 8.59795 355.323 9.77604 355.148 12.753C355.06 14.247 355.025 15.763 355.174 17.2482C355.577 21.2641 353.679 22.357 349.884 22.3258C332.39 22.182 314.895 22.2498 297.401 22.2719C288.22 22.2834 287.149 23.392 287.138 32.6612C287.129 39.8256 287.074 46.9907 287.152 54.1542C287.214 59.8718 288.863 61.5922 294.66 61.632C308.822 61.7292 322.985 61.629 337.147 61.7118C340.257 61.73 341.709 60.7105 341.646 57.378C341.316 40.107 344.013 43.4767 328.039 43.1786C319.712 43.0232 311.37 42.9269 303.051 43.2438C298.555 43.4151 296.932 41.8311 297.597 37.4994C297.772 36.3606 297.673 35.1674 297.6 34.0054C297.427 31.2564 298.753 29.9977 301.429 30.0012C316.923 30.0215 332.418 29.925 347.909 30.1322C352.599 30.1949 355.232 33.1159 355.259 37.8989C355.322 48.8951 355.17 59.8935 355.332 70.8876C355.392 74.9426 353.262 75.4374 349.99 75.4205C334.162 75.3391 318.333 75.3872 302.006 75.3892Z" fill="white"/>
<path d="M444.92 67.5833C440.932 73.4058 435.194 75.1351 429.064 75.225C413.761 75.4494 398.449 75.5367 383.15 75.2153C370.868 74.9572 364.98 68.6207 364.843 56.3159C364.736 46.6677 364.722 37.0163 364.833 27.3682C364.973 15.1631 371.063 8.86106 383.314 8.68737C398.451 8.47275 413.595 8.4954 428.731 8.70093C441.473 8.87397 447.261 14.9469 447.314 27.6541C447.354 37.3034 447.294 46.953 447.327 56.6023C447.339 60.3209 446.721 63.8811 444.92 67.5833ZM406.5 61.6635C413 61.6541 419.502 61.7605 425.998 61.5984C431.144 61.47 432.915 59.6392 432.966 54.5713C433.051 46.0726 432.948 37.5722 432.998 29.073C433.023 24.7467 430.845 22.4218 426.665 22.3899C413.001 22.2857 399.335 22.2696 385.672 22.4133C381.34 22.4589 379.052 24.807 379.135 29.4418C379.28 37.6054 379.133 45.7738 379.185 53.9397C379.222 59.8926 380.912 61.5673 387.001 61.6439C393.167 61.7215 399.334 61.6625 406.5 61.6635Z" fill="white"/>
<path d="M192.958 9.45788C195.517 9.11583 197.66 8.66699 199.805 8.65826C214.137 8.5999 228.47 8.5569 242.802 8.66281C256.717 8.76564 262.295 14.3478 262.354 28.0325C262.398 38.0317 262.403 48.0317 262.333 58.0306C262.266 67.7162 258.081 72.7419 248.515 74.6827C246.569 75.0776 244.553 75.2963 242.567 75.3039C228.402 75.3578 214.234 75.4608 200.071 75.3028C185.968 75.1455 179.869 68.9884 179.962 55.0163C180.032 44.5294 179.376 34.0307 180.434 23.5529C181.196 16.0007 185.153 11.3212 192.958 9.45788ZM197.853 60.8894C198.485 61.0878 199.117 61.4567 199.75 61.4597C213.876 61.5269 228.003 61.6718 242.127 61.5184C246.504 61.4709 248.59 58.5804 248.593 54.2416C248.601 46.0965 248.657 37.9509 248.587 29.8065C248.542 24.5827 246.679 22.4471 241.385 22.3805C227.923 22.2112 214.458 22.2753 200.994 22.3595C196.637 22.3868 194.267 24.5756 194.314 29.199C194.401 37.6757 194.359 46.154 194.318 54.6314C194.307 57.0919 194.686 59.2845 197.853 60.8894Z" fill="white"/>
<path d="M117.027 8.63323C129.604 8.76093 128.09 7.16989 128.181 19.1874C128.272 31.1864 128.398 43.1917 128.097 55.1839C127.974 60.0891 129.26 61.9658 134.495 61.7887C145.815 61.406 157.16 61.8112 168.489 61.5843C172.707 61.4998 174.478 62.6195 174.344 67.1747C174.101 75.3849 174.344 75.3941 166.134 75.3936C150.634 75.3928 135.133 75.2491 119.637 75.4753C115.165 75.5406 113.899 73.9216 113.936 69.6679C114.097 51.0032 113.983 32.3363 114.047 13.6704C114.054 11.6884 113.295 9.04852 117.027 8.63323Z" fill="white"/>
</svg>
